<svg width="6" height="6" viewBox="0 0 6 6" fill="none" xmlns="http://www.w3.org/2000/svg">
<path d="M3.705 2.9997L5.85333 0.856377C5.9474 0.762298 6.00026 0.634701 6.00026 0.501654C6.00026 0.368607 5.9474 0.241009 5.85333 0.146931C5.75925 0.0528527 5.63165 0 5.4986 0C5.36556 0 5.23796 0.0528527 5.14388 0.146931L3.00055 2.29525L0.857229 0.146931C0.763151 0.0528527 0.635553 -9.91276e-10 0.502507 0C0.36946 9.91277e-10 0.241862 0.0528527 0.147784 0.146931C0.0537053 0.241009 0.000852635 0.368607 0.000852634 0.501654C0.000852633 0.634701 0.0537053 0.762298 0.147784 0.856377L2.29611 2.9997L0.147784 5.14303C0.100956 5.18947 0.0637881 5.24473 0.0384236 5.30561C0.013059 5.36649 0 5.4318 0 5.49775C0 5.5637 0.013059 5.62901 0.0384236 5.68989C0.0637881 5.75077 0.100956 5.80603 0.147784 5.85247C0.194229 5.8993 0.249486 5.93647 0.310368 5.96183C0.37125 5.9872 0.436552 6.00026 0.502507 6.00026C0.568461 6.00026 0.633763 5.9872 0.694645 5.96183C0.755527 5.93647 0.810784 5.8993 0.857229 5.85247L3.00055 3.70415L5.14388 5.85247C5.19033 5.8993 5.24558 5.93647 5.30647 5.96183C5.36735 5.9872 5.43265 6.00026 5.4986 6.00026C5.56456 6.00026 5.62986 5.9872 5.69074 5.96183C5.75162 5.93647 5.80688 5.8993 5.85333 5.85247C5.90015 5.80603 5.93732 5.75077 5.96269 5.68989C5.98805 5.62901 6.00111 5.5637 6.00111 5.49775C6.00111 5.4318 5.98805 5.36649 5.96269 5.30561C5.93732 5.24473 5.90015 5.18947 5.85333 5.14303L3.705 2.9997Z" fill="#FB1D1D"/>
</svg>
