<svg width="48" height="96" viewBox="0 0 48 96" fill="none" xmlns="http://www.w3.org/2000/svg">
<g filter="url(#filter0_d_1321_3081)">
<path d="M24 36C30.6274 36 36 30.6274 36 24C36 17.3726 30.6274 12 24 12C17.3726 12 12 17.3726 12 24C12 30.6274 17.3726 36 24 36Z" fill="#0D9D00"/>
</g>
<g filter="url(#filter1_d_1321_3081)">
<path d="M24 84C30.6274 84 36 78.6274 36 72C36 65.3726 30.6274 60 24 60C17.3726 60 12 65.3726 12 72C12 78.6274 17.3726 84 24 84Z" fill="#0D9D00"/>
</g>
<defs>
<filter id="filter0_d_1321_3081" x="-4" y="0" width="56" height="56" filterUnits="userSpaceOnUse" color-interpolation-filters="sRGB">
<feFlood flood-opacity="0" result="BackgroundImageFix"/>
<feColorMatrix in="SourceAlpha" type="matrix" values="0 0 0 0 0 0 0 0 0 0 0 0 0 0 0 0 0 0 127 0" result="hardAlpha"/>
<feOffset dy="4"/>
<feGaussianBlur stdDeviation="2"/>
<feComposite in2="hardAlpha" operator="out"/>
<feColorMatrix type="matrix" values="0 0 0 0 0 0 0 0 0 0 0 0 0 0 0 0 0 0 0.25 0"/>
<feBlend mode="normal" in2="BackgroundImageFix" result="effect1_dropShadow_1321_3081"/>
<feBlend mode="normal" in="SourceGraphic" in2="effect1_dropShadow_1321_3081" result="shape"/>
</filter>
<filter id="filter1_d_1321_3081" x="-4" y="48" width="56" height="56" filterUnits="userSpaceOnUse" color-interpolation-filters="sRGB">
<feFlood flood-opacity="0" result="BackgroundImageFix"/>
<feColorMatrix in="SourceAlpha" type="matrix" values="0 0 0 0 0 0 0 0 0 0 0 0 0 0 0 0 0 0 127 0" result="hardAlpha"/>
<feOffset dy="4"/>
<feGaussianBlur stdDeviation="2"/>
<feComposite in2="hardAlpha" operator="out"/>
<feColorMatrix type="matrix" values="0 0 0 0 0 0 0 0 0 0 0 0 0 0 0 0 0 0 0.25 0"/>
<feBlend mode="normal" in2="BackgroundImageFix" result="effect1_dropShadow_1321_3081"/>
<feBlend mode="normal" in="SourceGraphic" in2="effect1_dropShadow_1321_3081" result="shape"/>
</filter>
</defs>
</svg>
