<svg width="17" height="16" viewBox="0 0 17 16" fill="none" xmlns="http://www.w3.org/2000/svg">
<path d="M14.1678 3.25854H12.336L10.4184 1.49443C10.3527 1.4338 10.2747 1.38571 10.1887 1.35294C10.1028 1.32017 10.0106 1.30337 9.91759 1.30349H7.08411C6.99107 1.30337 6.89893 1.32017 6.81298 1.35294C6.72702 1.38571 6.64897 1.4338 6.5833 1.49443L4.66574 3.25854H2.8339C2.05257 3.25854 1.41716 3.8431 1.41716 4.56191V11.7304C1.41716 12.4492 2.05257 13.0338 2.8339 13.0338H14.1678C14.9491 13.0338 15.5845 12.4492 15.5845 11.7304V4.56191C15.5845 3.8431 14.9491 3.25854 14.1678 3.25854ZM8.50085 11.0787C6.58117 11.0787 4.95901 9.58638 4.95901 7.82032C4.95901 6.05361 6.58117 4.56191 8.50085 4.56191C10.4205 4.56191 12.0427 6.05361 12.0427 7.82032C12.0427 9.58638 10.4205 11.0787 8.50085 11.0787Z" fill="#66DD09"/>
<path d="M9.20872 5.86497H7.79198V7.16834H6.37525V8.4717H7.79198V9.77507H9.20872V8.4717H10.6255V7.16834H9.20872V5.86497Z" fill="#66DD09"/>
</svg>
