<svg width="20" height="20" viewBox="0 0 20 20" fill="none" xmlns="http://www.w3.org/2000/svg">
<path d="M19.7619 10.625C19.6988 10.625 19.6382 10.6579 19.5935 10.7165C19.5489 10.7751 19.5238 10.8546 19.5238 10.9375V19.0625C19.5238 19.1454 19.4987 19.2249 19.4541 19.2835C19.4094 19.3421 19.3489 19.375 19.2857 19.375H0.714286C0.651139 19.375 0.590578 19.3421 0.545927 19.2835C0.501275 19.2249 0.47619 19.1454 0.47619 19.0625V10.9375C0.47619 10.8546 0.451106 10.7751 0.406454 10.7165C0.361802 10.6579 0.301242 10.625 0.238095 10.625C0.174948 10.625 0.114388 10.6579 0.0697365 10.7165C0.025085 10.7751 0 10.8546 0 10.9375L0 19.0625C0 19.5794 0.320476 20 0.714286 20H19.2857C19.6795 20 20 19.5794 20 19.0625V10.9375C20 10.8546 19.9749 10.7751 19.9303 10.7165C19.8856 10.6579 19.8251 10.625 19.7619 10.625Z" fill="black"/>
<path d="M19.2857 4.375H0.714286C0.320476 4.375 0 4.79563 0 5.3125V9.0625C0 9.14538 0.025085 9.22487 0.0697365 9.28347C0.114388 9.34208 0.174948 9.375 0.238095 9.375H6.66667V11.5625C6.66667 12.0794 6.98714 12.5 7.38095 12.5H12.619C13.0129 12.5 13.3333 12.0794 13.3333 11.5625V9.375H19.7619C19.8251 9.375 19.8856 9.34208 19.9303 9.28347C19.9749 9.22487 20 9.14538 20 9.0625V5.3125C20 4.79563 19.6795 4.375 19.2857 4.375ZM12.8571 11.5625C12.8571 11.6454 12.8321 11.7249 12.7874 11.7835C12.7428 11.8421 12.6822 11.875 12.619 11.875H7.38095C7.31781 11.875 7.25725 11.8421 7.21259 11.7835C7.16794 11.7249 7.14286 11.6454 7.14286 11.5625V9.375H12.8571V11.5625ZM19.5238 8.75H0.47619V5.3125C0.47619 5.22962 0.501275 5.15013 0.545927 5.09153C0.590578 5.03292 0.651139 5 0.714286 5H19.2857C19.3489 5 19.4094 5.03292 19.4541 5.09153C19.4987 5.15013 19.5238 5.22962 19.5238 5.3125V8.75ZM7.38095 0C6.98714 0 6.66667 0.420625 6.66667 0.9375V3.4375C6.66667 3.52038 6.69175 3.59987 6.7364 3.65847C6.78105 3.71708 6.84162 3.75 6.90476 3.75C6.96791 3.75 7.02847 3.71708 7.07312 3.65847C7.11777 3.59987 7.14286 3.52038 7.14286 3.4375V0.9375C7.14286 0.85462 7.16794 0.775134 7.21259 0.716529C7.25725 0.657924 7.31781 0.625 7.38095 0.625H12.619C12.6822 0.625 12.7428 0.657924 12.7874 0.716529C12.8321 0.775134 12.8571 0.85462 12.8571 0.9375V3.4375C12.8571 3.52038 12.8822 3.59987 12.9269 3.65847C12.9715 3.71708 13.0321 3.75 13.0952 3.75C13.1584 3.75 13.2189 3.71708 13.2636 3.65847C13.3082 3.59987 13.3333 3.52038 13.3333 3.4375V0.9375C13.3333 0.420625 13.0129 0 12.619 0H7.38095Z" fill="black"/>
</svg>
