<svg width="12" height="11" viewBox="0 0 12 11" fill="none" xmlns="http://www.w3.org/2000/svg">
<path d="M6.04957 0.0003882C5.2585 -0.00825858 4.47343 0.127622 3.73986 0.400155C3.00629 0.672689 2.33881 1.07645 1.77611 1.58805C1.21341 2.09965 0.766667 2.7089 0.461786 3.3805C0.156904 4.0521 -5.64978e-05 4.77269 1.5255e-08 5.50051C5.65283e-05 6.22833 0.157129 6.9489 0.462115 7.62046C0.767101 8.29202 1.21393 8.90121 1.77672 9.41274C2.3395 9.92426 3.00704 10.3279 3.74065 10.6004C4.47426 10.8728 5.25936 11.0086 6.05042 10.9998C7.62354 10.9824 9.1258 10.3953 10.2315 9.3657C11.3372 8.33611 11.9572 6.94706 11.9571 5.49972C11.957 4.05239 11.3368 2.66342 10.2309 1.63398C9.12504 0.604533 7.62269 0.0175832 6.04957 0.0003882Z" fill="#F24E1E"/>
</svg>
