<svg width="152" height="16" viewBox="0 0 152 16" fill="none" xmlns="http://www.w3.org/2000/svg">
<path d="M51.6806 3.11066C51.4177 2.50194 51.0387 1.95033 50.5646 1.48669C50.0903 1.02168 49.531 0.652134 48.9171 0.398161C48.2806 0.133762 47.598 -0.00157256 46.9087 1.37859e-05C45.9418 1.37859e-05 44.9984 0.264792 44.1786 0.764928C43.9825 0.884568 43.7961 1.01598 43.6196 1.15915C43.4431 1.01598 43.2568 0.884568 43.0606 0.764928C42.2408 0.264792 41.2974 1.37859e-05 40.3305 1.37859e-05C39.6342 1.37859e-05 38.9595 0.133383 38.3221 0.398161C37.7063 0.653133 37.1512 1.0199 36.6746 1.48669C36.2 1.9498 35.8208 2.50155 35.5586 3.11066C35.286 3.74417 35.1467 4.4169 35.1467 5.10925C35.1467 5.76237 35.2801 6.44294 35.5449 7.13529C35.7665 7.71388 36.0843 8.31404 36.4902 8.92009C37.1336 9.87917 38.0181 10.8794 39.1164 11.8934C40.9365 13.5743 42.739 14.7354 42.8155 14.7825L43.2803 15.0806C43.4863 15.212 43.751 15.212 43.957 15.0806L44.4218 14.7825C44.4983 14.7334 46.2988 13.5743 48.1208 11.8934C49.2192 10.8794 50.1037 9.87917 50.747 8.92009C51.153 8.31404 51.4727 7.71388 51.6924 7.13529C51.9572 6.44294 52.0905 5.76237 52.0905 5.10925C52.0925 4.4169 51.9532 3.74417 51.6806 3.11066Z" fill="#8DE96D" fill-opacity="0.93"/>
<path d="M76.658 3.11066C76.3951 2.50194 76.016 1.95033 75.542 1.48669C75.0676 1.02168 74.5083 0.652134 73.8945 0.398161C73.258 0.133762 72.5753 -0.00157256 71.8861 1.37859e-05C70.9192 1.37859e-05 69.9758 0.264792 69.156 0.764928C68.9598 0.884568 68.7735 1.01598 68.597 1.15915C68.4205 1.01598 68.2341 0.884568 68.038 0.764928C67.2182 0.264792 66.2748 1.37859e-05 65.3079 1.37859e-05C64.6116 1.37859e-05 63.9369 0.133383 63.2995 0.398161C62.6836 0.653133 62.1286 1.0199 61.652 1.48669C61.1773 1.9498 60.7982 2.50155 60.536 3.11066C60.2634 3.74417 60.1241 4.4169 60.1241 5.10925C60.1241 5.76237 60.2575 6.44294 60.5223 7.13529C60.7439 7.71388 61.0616 8.31404 61.4676 8.92009C62.1109 9.87917 62.9955 10.8794 64.0938 11.8934C65.9139 13.5743 67.7164 14.7354 67.7928 14.7825L68.2577 15.0806C68.4636 15.212 68.7284 15.212 68.9343 15.0806L69.3992 14.7825C69.4757 14.7334 71.2761 13.5743 73.0982 11.8934C74.1965 10.8794 75.0811 9.87917 75.7244 8.92009C76.1304 8.31404 76.4501 7.71388 76.6698 7.13529C76.9345 6.44294 77.0679 5.76237 77.0679 5.10925C77.0699 4.4169 76.9306 3.74417 76.658 3.11066Z" fill="#8DE96D" fill-opacity="0.93"/>
<path d="M101.635 3.11066C101.372 2.50194 100.993 1.95033 100.519 1.48669C100.045 1.02168 99.4857 0.652134 98.8718 0.398161C98.2354 0.133762 97.5527 -0.00157256 96.8635 1.37859e-05C95.8965 1.37859e-05 94.9531 0.264792 94.1333 0.764928C93.9372 0.884568 93.7509 1.01598 93.5743 1.15915C93.3978 1.01598 93.2115 0.884568 93.0154 0.764928C92.1955 0.264792 91.2521 1.37859e-05 90.2852 1.37859e-05C89.5889 1.37859e-05 88.9143 0.133383 88.2768 0.398161C87.661 0.653133 87.1059 1.0199 86.6293 1.48669C86.1547 1.9498 85.7755 2.50155 85.5133 3.11066C85.2407 3.74417 85.1015 4.4169 85.1015 5.10925C85.1015 5.76237 85.2348 6.44294 85.4996 7.13529C85.7212 7.71388 86.039 8.31404 86.445 8.92009C87.0883 9.87917 87.9728 10.8794 89.0712 11.8934C90.8913 13.5743 92.6937 14.7354 92.7702 14.7825L93.235 15.0806C93.441 15.212 93.7057 15.212 93.9117 15.0806L94.3765 14.7825C94.453 14.7334 96.2535 13.5743 98.0756 11.8934C99.1739 10.8794 100.058 9.87917 100.702 8.92009C101.108 8.31404 101.427 7.71388 101.647 7.13529C101.912 6.44294 102.045 5.76237 102.045 5.10925C102.047 4.4169 101.908 3.74417 101.635 3.11066Z" fill="#8DE96D" fill-opacity="0.93"/>
<path d="M126.613 3.11066C126.35 2.50194 125.971 1.95033 125.497 1.48669C125.022 1.02168 124.463 0.652134 123.849 0.398161C123.213 0.133762 122.53 -0.00157256 121.841 1.37859e-05C120.874 1.37859e-05 119.931 0.264792 119.111 0.764928C118.915 0.884568 118.728 1.01598 118.552 1.15915C118.375 1.01598 118.189 0.884568 117.993 0.764928C117.173 0.264792 116.23 1.37859e-05 115.263 1.37859e-05C114.566 1.37859e-05 113.892 0.133383 113.254 0.398161C112.638 0.653133 112.083 1.0199 111.607 1.48669C111.132 1.9498 110.753 2.50155 110.491 3.11066C110.218 3.74417 110.079 4.4169 110.079 5.10925C110.079 5.76237 110.212 6.44294 110.477 7.13529C110.699 7.71388 111.016 8.31404 111.422 8.92009C112.066 9.87917 112.95 10.8794 114.049 11.8934C115.869 13.5743 117.671 14.7354 117.748 14.7825L118.212 15.0806C118.418 15.212 118.683 15.212 118.889 15.0806L119.354 14.7825C119.43 14.7334 121.231 13.5743 123.053 11.8934C124.151 10.8794 125.036 9.87917 125.679 8.92009C126.085 8.31404 126.405 7.71388 126.624 7.13529C126.889 6.44294 127.023 5.76237 127.023 5.10925C127.025 4.4169 126.885 3.74417 126.613 3.11066Z" fill="#8DE96D" fill-opacity="0.93"/>
<path d="M151.59 3.11066C151.327 2.50194 150.948 1.95033 150.474 1.48669C150 1.02168 149.44 0.652134 148.827 0.398161C148.19 0.133762 147.507 -0.00157256 146.818 1.37859e-05C145.851 1.37859e-05 144.908 0.264792 144.088 0.764928C143.892 0.884568 143.706 1.01598 143.529 1.15915C143.353 1.01598 143.166 0.884568 142.97 0.764928C142.15 0.264792 141.207 1.37859e-05 140.24 1.37859e-05C139.544 1.37859e-05 138.869 0.133383 138.232 0.398161C137.616 0.653133 137.061 1.0199 136.584 1.48669C136.109 1.9498 135.73 2.50155 135.468 3.11066C135.195 3.74417 135.056 4.4169 135.056 5.10925C135.056 5.76237 135.19 6.44294 135.454 7.13529C135.676 7.71388 135.994 8.31404 136.4 8.92009C137.043 9.87917 137.928 10.8794 139.026 11.8934C140.846 13.5743 142.648 14.7354 142.725 14.7825L143.19 15.0806C143.396 15.212 143.66 15.212 143.866 15.0806L144.331 14.7825C144.408 14.7334 146.208 13.5743 148.03 11.8934C149.129 10.8794 150.013 9.87917 150.656 8.92009C151.062 8.31404 151.382 7.71388 151.602 7.13529C151.867 6.44294 152 5.76237 152 5.10925C152.002 4.4169 151.863 3.74417 151.59 3.11066Z" fill="#8DE96D" fill-opacity="0.93"/>
</svg>
