<svg width="17" height="14" viewBox="0 0 17 14" fill="none" xmlns="http://www.w3.org/2000/svg">
<path d="M14.2807 5.94473C14.3896 5.61786 14.4507 5.26044 14.4507 4.88775C14.4507 3.26868 13.3085 1.9551 11.9006 1.9551C11.3773 1.9551 10.8885 2.13839 10.4848 2.44998C9.74893 0.983659 8.37558 0 6.80035 0C4.4521 0 2.55013 2.18727 2.55013 4.88775C2.55013 4.97023 2.55279 5.05271 2.55544 5.13519C1.06787 5.737 0 7.36828 0 9.28672C0 11.7153 1.71337 13.6857 3.8252 13.6857H13.6007C15.4788 13.6857 17.0009 11.9353 17.0009 9.7755C17.0009 7.88455 15.8321 6.3052 14.2807 5.94473ZM10.4502 7.8204H8.71294V11.2418C8.71294 11.5106 8.52168 11.7306 8.28792 11.7306H7.01286C6.7791 11.7306 6.58784 11.5106 6.58784 11.2418V7.8204H4.85056C4.4707 7.8204 4.28209 7.29497 4.55039 6.98643L7.35022 3.76662C7.51491 3.57722 7.78587 3.57722 7.95056 3.76662L10.7504 6.98643C11.0187 7.29497 10.8274 7.8204 10.4502 7.8204Z" fill="#66DD09"/>
</svg>
