<svg width="124" height="105" viewBox="0 0 124 105" fill="none" xmlns="http://www.w3.org/2000/svg">
<path d="M123.962 52.3975C123.962 56.0889 120.733 58.9805 117.073 58.9805H110.184L110.334 91.8135C110.356 99.0938 104.177 105 96.5561 105H70.2696L62.0026 91.875L79.3977 78.0732C81.077 76.7197 81.0555 74.2588 79.3332 72.9668L53.9509 53.9766C50.6139 51.6182 46.6742 55.3916 49.0423 58.4883L62.0026 75.4688L43.5956 90.0703C42.3038 91.1162 41.7872 92.7158 42.8636 94.2949L49.6021 105H27.5782C19.9678 105 13.7977 99.1143 13.7977 91.875V58.9805H6.89994C3.01832 58.9805 0 56.0889 0 52.3975C0 50.5518 0.646721 48.9111 2.15502 47.4756L57.3524 1.64391C58.8594 0.205488 60.5817 0 62.0887 0C63.5957 0 65.318 0.410976 66.6312 1.43842L89.5593 20.6514V13.125C89.5593 9.50127 92.6379 6.5625 96.4484 6.5625H103.338C107.148 6.5625 110.227 9.50127 110.227 13.125V37.9395L121.594 47.4756C123.316 48.9111 124.199 50.5518 123.962 52.3975Z" fill="black"/>
</svg>
