<svg width="18" height="18" viewBox="0 0 18 18" fill="none" xmlns="http://www.w3.org/2000/svg">
<path d="M9 0C4.02991 0 0 4.02991 0 9C0 13.9701 4.02991 18 9 18C13.9701 18 18 13.9701 18 9C18 4.02991 13.9701 0 9 0ZM11.8949 9.13862L7.50737 12.3308C7.48331 12.3481 7.45496 12.3584 7.42542 12.3606C7.39589 12.3628 7.36631 12.3569 7.33994 12.3434C7.31358 12.3299 7.29144 12.3094 7.27597 12.2841C7.26049 12.2589 7.25228 12.2298 7.25223 12.2002V5.81987C7.25214 5.79019 7.26026 5.76106 7.2757 5.73572C7.29114 5.71037 7.3133 5.6898 7.33972 5.67627C7.36614 5.66275 7.39579 5.65681 7.42538 5.65911C7.45497 5.6614 7.48335 5.67185 7.50737 5.68929L11.8949 8.87946C11.9156 8.89412 11.9325 8.91354 11.9442 8.93609C11.9558 8.95863 11.9619 8.98365 11.9619 9.00904C11.9619 9.03443 11.9558 9.05944 11.9442 9.08199C11.9325 9.10454 11.9156 9.12396 11.8949 9.13862Z" fill="#8DE96D" fill-opacity="0.93"/>
</svg>
